# 3ds Max Wavefront OBJ Exporter v0.97b - (c)2007 guruware
# File Created: 08.02.2018 23:50:48

mtllib 872509.mtl

#
# object Plane008
#

v  -11.2082 160.6995 -45.8734
v  -7.9042 161.4484 -44.8290
v  -7.9025 161.9800 -54.1341
v  -11.4811 161.2311 -54.1488
v  -7.8995 162.9635 -70.3569
v  -11.2325 162.2146 -70.3715
v  -11.0141 162.3967 -77.4509
v  -7.8975 163.1456 -77.4502
v  -10.4262 162.2077 -89.8587
v  -7.8859 162.9566 -89.8460
v  -10.2210 158.6142 -105.2167
v  -10.4770 158.8963 -103.4303
v  -7.9317 158.8805 -103.4218
v  -7.9318 158.6103 -105.2050
v  -10.4619 158.5793 -108.6089
v  -9.9618 158.5491 -107.0901
v  -7.9319 158.5491 -107.0819
v  -7.9319 158.5491 -108.6220
v  -10.9778 158.9638 -114.6727
v  -7.9319 158.6660 -112.1183
v  -14.3444 159.5753 -102.3541
v  -10.7088 159.8372 -100.0633
v  -12.1110 158.8507 -105.1251
v  -16.3748 158.9205 -114.4191
v  -12.2555 158.9638 -114.4755
v  -11.4582 158.9638 -114.5557
v  -11.1929 158.6033 -106.7287
v  -7.9298 159.8115 -100.0741
v  -20.0191 160.0758 -112.9162
v  -19.8745 160.0793 -109.9254
v  -18.9761 160.0788 -106.8641
v  -17.5892 160.0786 -104.0682
v  -15.3293 159.7189 -100.8036
v  -16.2091 161.8553 -125.3191
v  -16.3640 163.0227 -129.6809
v  -17.4908 162.0240 -125.3316
v  -15.3864 162.0240 -126.6935
v  -10.2399 158.9373 -38.6302
v  -7.9026 159.5544 -38.6291
v  -10.3288 161.1569 -93.5196
v  -7.9039 161.5738 -93.2223
v  -7.9358 160.2972 -96.3840
v  -11.7562 160.2897 -96.4230
v  -4.5999 160.6995 -45.8747
v  -4.3240 161.2311 -54.1503
v  -4.5665 162.2146 -70.3728
v  -4.7810 162.3967 -77.4510
v  -5.3456 162.2077 -89.8587
v  -5.6428 158.7826 -105.2167
v  -5.3867 158.8964 -103.4304
v  -5.4019 158.7478 -108.6089
v  -5.9021 158.7176 -107.0901
v  -5.1305 158.9638 -114.6726
v  -7.9319 163.9010 -128.9509
v  -7.9318 163.2524 -127.5849
v  -6.8530 163.3127 -127.5666
v  -1.5169 159.5771 -102.3596
v  -3.7533 159.0194 -105.1253
v  -5.1713 159.8365 -100.0788
v  0.4792 158.9205 -114.4191
v  -3.8309 158.9638 -114.4756
v  -4.3640 158.9638 -114.5558
v  -4.6711 158.7719 -106.7287
v  -0.5151 159.9993 -100.8069
v  1.7606 160.0787 -103.8466
v  3.1776 160.0789 -106.8613
v  4.0111 160.0793 -109.9256
v  4.1704 160.0758 -112.9163
v  1.4614 162.0240 -125.2882
v  0.2809 163.0227 -129.6809
v  0.1635 161.8553 -125.2952
v  -0.6835 162.0240 -126.8038
v  -5.4457 158.9189 -38.6302
v  -5.5062 161.1566 -93.5257
v  -4.1656 160.2996 -96.3324
v  -1.9457 160.1029 -99.1616
v  -13.8687 159.9265 -99.2226
v  -9.0124 163.3127 -127.6033
v  -9.9855 160.3705 -120.7510
v  -7.9319 160.2597 -120.7204
v  -7.9318 161.8356 -124.7736
v  -9.4928 161.9465 -124.7476
v  -5.8653 160.3705 -120.6894
v  -6.3557 161.9465 -124.7999
v  -6.5551 162.7803 -126.2904
v  -7.9319 162.7994 -126.8289
v  -9.3004 162.6242 -126.2735
v  -10.4807 159.0944 -117.0478
v  -7.9319 158.9835 -117.0478
v  -5.4469 159.0944 -117.0478
v  -3.2373 159.8292 -117.5818
v  -1.5059 161.5091 -124.1682
v  -2.5055 160.6392 -120.8227
v  3.9911 160.1960 -115.9816
v  3.0836 160.6456 -119.4431
v  2.3332 161.2476 -122.2541
v  -19.7028 160.1960 -115.9816
v  -18.3190 161.2476 -122.2541
v  -18.9767 160.6456 -119.4432
v  -13.0446 159.8292 -117.5818
v  -13.7568 160.6392 -120.9329
v  -14.6507 161.5091 -124.0579
v  -7.9025 161.5784 -54.1341
v  -7.5807 161.0468 -44.8290
v  -11.2082 158.0774 -45.8734
v  -11.4811 158.6090 -54.1488
v  -11.2325 159.5924 -70.3715
v  -7.8995 162.5619 -70.3569
v  -11.0141 160.1400 -77.4504
v  -7.8975 162.7440 -77.4497
v  -10.4261 160.7953 -89.8600
v  -7.8859 161.9850 -89.8475
v  -7.9319 157.2833 -103.3344
v  -10.4742 157.3989 -103.3421
v  -10.2223 157.1145 -105.1840
v  -7.9319 157.0109 -105.1765
v  -7.9319 156.8201 -107.0806
v  -9.9619 156.9197 -107.0879
v  -10.4619 157.0491 -108.6089
v  -7.9319 156.9495 -108.6220
v  -10.9778 157.4638 -114.6727
v  -7.9319 157.0501 -112.1183
v  -10.6866 158.3410 -99.9579
v  -14.3256 158.0767 -102.2920
v  -12.1205 157.3208 -105.0965
v  -16.3754 158.0192 -114.4157
v  -12.2555 157.4638 -114.4749
v  -11.4585 157.4638 -114.5553
v  -11.1962 157.0733 -106.7263
v  -7.9319 158.1532 -99.9514
v  -20.0127 158.6002 -112.9112
v  -15.3003 158.7241 -100.7155
v  -17.5357 158.5796 -104.0840
v  -18.9298 158.5796 -106.8794
v  -19.8420 158.5796 -109.9301
v  -17.4908 160.5240 -125.3316
v  -16.3640 161.5227 -129.6809
v  -16.2091 160.5240 -125.3191
v  -15.3864 160.5240 -126.6935
v  -7.9026 158.3939 -38.6291
v  -10.3989 158.3939 -38.6302
v  -7.9357 159.2335 -96.2656
v  -7.7261 160.4194 -93.1743
v  -10.3315 160.2561 -93.4554
v  -11.7550 159.2285 -96.2760
v  -4.3240 158.6090 -54.1503
v  -4.5999 158.0774 -45.8747
v  -4.5665 159.5924 -70.3728
v  -4.7810 160.1400 -77.4505
v  -5.3456 160.7953 -89.8600
v  -5.6416 157.1145 -105.1840
v  -5.3896 157.3990 -103.3421
v  -5.4019 157.0491 -108.6089
v  -5.9020 156.9197 -107.0879
v  -5.1305 157.4638 -114.6726
v  -6.8530 162.2033 -127.5666
v  -8.0795 162.1673 -127.5849
v  -7.9319 162.6913 -128.9508
v  -3.7433 157.3211 -105.0965
v  -1.5382 158.0787 -102.2920
v  -5.1773 158.3414 -99.9579
v  -3.8309 157.5812 -114.4748
v  0.4797 157.4205 -114.4157
v  -4.6676 157.0734 -106.7262
v  -4.3637 157.4638 -114.5553
v  1.7101 158.5796 -103.8578
v  -0.5635 158.7323 -100.7155
v  4.1640 158.5758 -112.9112
v  3.9781 158.5796 -109.9301
v  3.1327 158.5796 -106.8750
v  0.1635 160.5240 -125.2952
v  0.2809 161.5227 -129.6809
v  1.4614 160.5240 -125.2882
v  -0.6835 160.5240 -126.8038
v  -5.4457 158.3939 -38.6302
v  -4.1730 159.2359 -96.2140
v  -5.4981 160.2561 -93.4553
v  -2.0205 158.9283 -99.0567
v  -13.8694 158.9240 -99.0566
v  -9.0125 162.1025 -127.6033
v  -7.9318 160.7734 -124.7736
v  -7.9319 159.1392 -120.7204
v  -9.9855 159.1392 -120.7510
v  -9.4928 160.7734 -124.7476
v  -6.3557 160.7734 -124.7999
v  -6.2283 159.1392 -120.6894
v  -6.5551 161.6053 -126.2903
v  -7.9319 161.7689 -126.8289
v  -9.3004 161.6053 -126.2735
v  -7.9319 157.9574 -117.0478
v  -10.4807 157.9574 -117.0478
v  -5.4469 157.9574 -117.0478
v  -3.2373 158.3292 -117.5818
v  -2.5055 159.1392 -120.8227
v  -1.5059 160.0091 -124.1682
v  3.9911 158.6960 -115.9816
v  2.3332 159.7476 -122.2541
v  3.0836 159.1456 -119.4431
v  -19.7028 158.6960 -115.9816
v  -18.9767 159.1456 -119.4432
v  -18.3190 159.7476 -122.2541
v  -13.0446 158.3292 -117.5818
v  -14.6507 160.0091 -124.0579
v  -13.7568 159.1392 -120.9329
# 204 vertices

vn -0.7806 0.6090 0.1428
vn -0.0005 0.9809 0.1944
vn -0.0001 0.9983 0.0588
vn -0.7794 0.6249 0.0471
vn -0.0001 0.9991 0.0430
vn -0.7788 0.6272 0.0110
vn -0.7823 0.6224 -0.0252
vn -0.0001 1.0000 0.0052
vn -0.7720 0.6237 -0.1207
vn 0.0008 0.9810 -0.1938
vn 0.0777 0.9916 -0.1033
vn 0.1053 0.9704 -0.2176
vn 0.0005 0.9779 -0.2093
vn -0.0363 0.9952 -0.0912
vn 0.0784 0.9961 0.0410
vn 0.0496 0.9987 -0.0114
vn -0.0413 0.9990 -0.0162
vn -0.0332 0.9993 0.0168
vn -0.3698 0.8702 -0.3247
vn -0.0030 0.9991 0.0418
vn 0.0583 0.9924 -0.1089
vn 0.2482 -0.1874 -0.9510
vn 0.2018 0.9774 -0.0640
vn 0.1744 0.9785 0.1092
vn 0.3164 0.8935 -0.3194
vn -0.1119 0.7395 -0.6635
vn 0.1616 0.9868 -0.0026
vn -0.0000 0.9798 -0.1998
vn -0.6189 0.7854 -0.0097
vn -0.7272 0.6755 0.1238
vn -0.6863 0.6760 0.2699
vn -0.4287 0.8541 0.2955
vn -0.5633 0.7072 0.4285
vn 0.1783 0.9502 0.2551
vn -0.0177 0.6666 -0.7452
vn -0.6583 0.7527 0.0108
vn 0.7788 0.6249 -0.0568
vn -0.5073 0.4940 0.7073
vn -0.0032 0.6505 0.7595
vn -0.7047 0.7064 -0.0645
vn 0.0011 0.9262 -0.3770
vn 0.0024 0.9671 -0.2544
vn -0.6082 0.7599 0.2308
vn 0.7795 0.6112 0.1348
vn 0.7793 0.6250 0.0437
vn 0.7787 0.6273 0.0077
vn 0.7822 0.6225 -0.0279
vn 0.7732 0.6214 -0.1286
vn -0.0693 0.9966 -0.0436
vn -0.1371 0.9740 -0.1800
vn -0.0890 0.9958 0.0209
vn -0.0968 0.9952 -0.0162
vn 0.3365 0.8882 -0.3136
vn 0.0044 0.7486 -0.6631
vn -0.0092 0.8812 0.4727
vn 0.7038 0.7046 -0.0920
vn -0.1447 0.9792 -0.1421
vn -0.1925 0.9805 -0.0391
vn -0.2451 -0.1883 -0.9505
vn -0.1744 0.9784 0.1118
vn -0.3016 0.9048 -0.2999
vn 0.1062 0.7159 -0.6904
vn -0.1445 0.9894 -0.0117
vn 0.5049 0.7724 0.3842
vn 0.6000 0.7100 0.3671
vn 0.6911 0.6765 0.2528
vn 0.7257 0.6781 0.1147
vn 0.6152 0.7883 0.0045
vn 0.6543 0.7562 0.0020
vn 0.0161 0.6677 -0.7443
vn -0.2002 0.9455 0.2573
vn -0.7846 0.6163 -0.0657
vn 0.6043 0.4187 0.6765
vn 0.7021 0.7075 -0.0820
vn 0.6092 0.7481 0.2617
vn 0.5662 -0.6457 0.5110
vn -0.5558 -0.6269 0.5473
vn -0.7128 0.6989 -0.0574
vn -0.7055 0.6895 0.1656
vn -0.0058 0.9385 0.3452
vn 0.0059 0.9195 0.3931
vn -0.6992 0.6866 0.2008
vn 0.7985 0.5898 0.1188
vn 0.7187 0.6613 0.2130
vn 0.6636 0.7128 0.2255
vn -0.0463 0.8762 0.4798
vn -0.7189 0.6711 0.1826
vn -0.7168 0.6973 0.0091
vn -0.0010 0.9803 0.1973
vn 0.7253 0.6873 0.0383
vn -0.4566 0.8795 0.1351
vn -0.1559 0.9731 0.1700
vn -0.7568 0.6527 -0.0339
vn 0.8486 0.5205 -0.0962
vn 0.9675 0.0269 -0.2536
vn 0.9520 0.2199 -0.2150
vn -0.9078 0.4049 -0.1070
vn -0.9207 0.3609 -0.1466
vn -0.9720 0.1339 -0.1910
vn 0.3707 -0.8754 -0.3110
vn 0.8490 0.5225 -0.0809
vn -0.0182 -0.9754 -0.2198
vn 0.0068 -0.9982 -0.0591
vn -0.0620 -0.9698 -0.2358
vn -0.4276 -0.9038 0.0197
vn -0.4374 -0.8978 -0.0504
vn -0.4103 -0.9091 -0.0708
vn 0.0001 -0.9991 -0.0428
vn -0.4285 -0.9003 -0.0747
vn 0.0001 -0.9998 0.0174
vn -0.5592 -0.8288 0.0206
vn 0.0037 -0.9717 0.2361
vn -0.0005 -0.9803 0.1977
vn -0.1184 -0.9694 0.2153
vn -0.0970 -0.9878 0.1219
vn -0.0003 -0.9924 0.1230
vn -0.0000 -1.0000 0.0083
vn -0.1894 -0.9816 0.0244
vn -0.1051 -0.9927 -0.0583
vn 0.0001 -0.9984 -0.0562
vn -0.3368 -0.8223 -0.4580
vn 0.0043 -0.9975 -0.0702
vn -0.2447 0.2461 0.9384
vn -0.2620 -0.9505 0.1677
vn -0.2062 -0.9763 0.0664
vn -0.1708 -0.9789 -0.1122
vn 0.1435 -0.8852 -0.4428
vn -0.1187 -0.7048 -0.6991
vn -0.1548 -0.9879 0.0048
vn -0.0005 -0.9642 0.2650
vn -0.7719 -0.6353 -0.0224
vn -0.6325 -0.5626 0.5338
vn -0.5137 -0.7989 0.3140
vn -0.6642 -0.7000 0.2640
vn -0.7033 -0.7004 0.1229
vn -0.6640 -0.6670 -0.3363
vn -0.0318 -0.4214 -0.9063
vn -0.1807 -0.9584 -0.2206
vn 0.5235 -0.7639 -0.3786
vn -0.0013 -0.8345 0.5510
vn -0.6289 -0.4884 0.6064
vn -0.0024 -0.9474 0.3199
vn -0.0027 -0.9186 0.3951
vn -0.6203 -0.7027 0.3499
vn -0.5526 -0.6823 0.4800
vn 0.4375 -0.8978 -0.0523
vn 0.3847 -0.9229 0.0169
vn 0.4103 -0.9091 -0.0725
vn 0.4283 -0.9005 -0.0762
vn 0.5625 -0.8267 0.0128
vn 0.0965 -0.9879 0.1215
vn 0.1175 -0.9695 0.2148
vn 0.1128 -0.9917 -0.0617
vn 0.1893 -0.9816 0.0236
vn 0.3079 -0.8410 -0.4455
vn 0.6678 -0.5401 -0.5137
vn 0.0546 -0.9087 -0.4140
vn 0.0120 -0.3937 -0.9192
vn 0.2183 -0.9742 0.0563
vn 0.2386 -0.9531 0.1859
vn 0.2414 0.2456 0.9383
vn -0.1459 -0.8731 -0.4648
vn 0.1635 -0.9792 -0.1202
vn 0.1536 -0.9881 0.0047
vn 0.1775 -0.7052 -0.6869
vn 0.5423 -0.7693 0.3366
vn 0.6148 -0.5700 0.5437
vn 0.8098 -0.5867 -0.0050
vn 0.7135 -0.6903 0.1184
vn 0.6698 -0.6996 0.2472
vn 0.2290 -0.9398 -0.2541
vn 0.0320 -0.4205 -0.9068
vn 0.6621 -0.6644 -0.3484
vn -0.5038 -0.7687 -0.3929
vn 0.5410 -0.5691 0.6179
vn 0.5451 -0.6917 0.4723
vn 0.6252 -0.7024 0.3389
vn 0.5993 0.6865 0.4103
vn -0.5849 0.7108 0.3922
vn -0.6265 -0.5995 -0.4966
vn -0.0058 -0.9142 -0.4051
vn 0.0064 -0.9403 -0.3404
vn -0.6743 -0.6625 -0.3247
vn -0.6741 -0.6327 -0.3796
vn 0.6893 -0.6362 -0.3482
vn 0.5475 -0.7611 -0.3490
vn 0.7179 -0.5585 -0.4174
vn 0.0059 -0.8901 -0.4558
vn -0.7251 -0.5667 -0.3894
vn 0.0006 -0.9697 -0.2442
vn -0.6615 -0.6895 -0.2933
vn 0.6804 -0.6740 -0.2895
vn -0.5834 -0.7530 -0.3030
vn -0.6219 -0.7059 -0.3376
vn -0.9461 -0.0935 -0.3078
vn 0.5573 -0.8164 -0.1524
vn 0.1663 -0.9495 -0.2663
vn -0.0131 -0.9868 -0.1617
vn -0.4055 -0.9045 -0.1309
vn -0.1050 -0.9768 -0.1864
vn -0.3190 -0.9030 -0.2869
vn 0.9068 0.4076 -0.1093
vn 0.9640 0.0392 -0.2654
vn 0.4924 -0.8067 -0.3280
# 204 vertex normals

vt 1.0000 0.5029 0.0000
vt 0.0000 0.4175 0.0000
vt 0.0000 1.0000 0.0000
vt 1.0000 1.0000 0.0000
vt 1.0000 0.0000 0.0000
vt 0.0000 0.0000 0.0000
vt 0.6994 1.0000 0.0000
vt 0.7133 1.0000 0.0000
vt 0.8796 1.0000 0.0000
vt 0.8851 1.0000 0.0000
# 10 texture coords

o Plane008
g Plane008
usemtl 02___Default
s 1
f 1/1/1 2/2/2 3/3/3 4/4/4 
s off
f 3/3/3 5/3/5 6/4/6 4/4/4 
f 7/4/7 6/4/6 5/3/5 8/3/8 
f 9/4/9 7/4/7 8/3/8 10/3/10 
f 11/4/11 12/4/12 13/3/13 14/3/14 
f 15/4/15 16/4/16 17/3/17 18/3/18 
f 19/4/19 15/4/15 18/3/18 20/3/20 
f 21/4/21 22/4/22 12/4/12 23/4/23 
f 24/4/24 21/4/21 23/4/23 25/4/25 
f 26/4/26 25/4/25 23/4/23 27/4/27 
f 11/4/11 27/4/27 23/4/23 12/4/12 
f 14/3/14 17/3/17 16/4/16 11/4/11 
f 27/4/27 15/4/15 19/4/19 26/4/26 
f 16/4/16 15/4/15 27/4/27 11/4/11 
f 28/3/28 13/3/13 12/4/12 22/4/22 
f 21/4/21 24/4/24 29/4/29 30/4/30 31/4/31 32/4/32 33/4/33 
f 34/4/34 35/4/35 36/4/36 
f 37/4/37 35/4/35 34/4/34 
s 1
f 38/5/38 39/6/39 2/2/2 1/1/1 
s off
f 40/4/40 41/3/41 42/3/42 43/4/43 
f 10/3/10 41/3/41 40/4/40 9/4/9 
s 1
f 44/1/44 45/4/45 3/3/3 2/2/2 
s off
f 46/4/46 5/3/5 3/3/3 45/4/45 
f 47/4/47 8/3/8 5/3/5 46/4/46 
f 48/4/48 10/3/10 8/3/8 47/4/47 
f 49/4/49 14/3/14 13/3/13 50/4/50 
f 51/4/51 18/3/18 17/3/17 52/4/52 
f 53/4/53 20/3/20 18/3/18 51/4/51 
f 54/3/54 55/3/55 56/7/56 
f 57/4/57 58/4/58 50/4/50 59/4/59 
f 60/4/60 61/4/61 58/4/58 57/4/57 
f 62/4/62 63/4/63 58/4/58 61/4/61 
f 49/4/49 50/4/50 58/4/58 63/4/63 
f 14/3/14 49/4/49 52/4/52 17/3/17 
f 63/4/63 62/4/62 53/4/53 51/4/51 
f 52/4/52 49/4/49 63/4/63 51/4/51 
f 28/3/28 59/4/59 50/4/50 13/3/13 
f 57/4/57 64/4/64 65/4/65 66/4/66 67/4/67 68/4/68 60/4/60 
f 69/4/69 70/4/70 71/4/71 
f 71/4/71 70/4/70 72/4/72 
s 1
f 73/5/73 44/1/44 2/2/2 39/6/39 
s off
f 41/3/41 74/4/74 75/4/75 42/3/42 
f 10/3/10 48/4/48 74/4/74 41/3/41 
f 76/4/76 64/4/64 57/4/57 59/4/59 28/3/28 42/3/42 75/4/75 
f 22/4/22 21/4/21 33/4/33 77/4/77 43/4/43 42/3/42 28/3/28 
f 78/8/78 55/3/55 54/3/54 
f 79/4/79 80/3/80 81/3/81 82/4/82 
f 80/3/80 83/4/83 84/4/84 81/3/81 
f 81/3/81 84/4/84 85/9/85 86/3/86 
f 87/10/87 82/4/82 81/3/81 86/3/86 
f 78/8/78 87/10/87 86/3/86 55/3/55 
f 86/3/86 85/9/85 56/7/56 55/3/55 
f 79/4/79 88/4/88 89/3/89 80/3/80 
f 89/3/89 90/4/90 83/4/83 80/3/80 
f 19/4/19 20/3/20 89/3/89 88/4/88 
f 89/3/89 20/3/20 53/4/53 90/4/90 
f 91/4/91 61/4/61 60/4/60 71/4/71 72/4/72 92/4/92 93/4/93 
f 60/4/60 68/4/68 94/4/94 95/4/95 96/4/96 69/4/69 71/4/71 
f 97/4/97 29/4/29 24/4/24 34/4/34 36/4/36 98/4/98 99/4/99 
f 24/4/24 25/4/25 100/4/100 101/4/101 102/4/102 37/4/37 34/4/34 
s 1
f 103/3/103 104/2/104 105/1/105 106/4/106 
s off
f 107/4/107 108/3/108 103/3/103 106/4/106 
f 108/3/108 107/4/107 109/4/109 110/3/110 
f 110/3/110 109/4/109 111/4/111 112/3/112 
f 113/3/113 114/4/114 115/4/115 116/3/116 
f 117/3/117 118/4/118 119/4/119 120/3/120 
f 120/3/120 119/4/119 121/4/121 122/3/122 
f 114/4/114 123/4/123 124/4/124 125/4/125 
f 125/4/125 124/4/124 126/4/126 127/4/127 
f 125/4/125 127/4/127 128/4/128 129/4/129 
f 125/4/125 129/4/129 115/4/115 114/4/114 
f 118/4/118 117/3/117 116/3/116 115/4/115 
f 121/4/121 119/4/119 129/4/129 128/4/128 
f 129/4/129 119/4/119 118/4/118 115/4/115 
f 114/4/114 113/3/113 130/3/130 123/4/123 
f 131/4/131 126/4/126 124/4/124 132/4/132 133/4/133 134/4/134 135/4/135 
f 136/4/136 137/4/137 138/4/138 
f 138/4/138 137/4/137 139/4/139 
s 1
f 104/2/104 140/6/140 141/5/141 105/1/105 
s off
f 142/3/142 143/3/143 144/4/144 145/4/145 
f 144/4/144 143/3/143 112/3/112 111/4/111 
s 1
f 103/3/103 146/4/146 147/1/147 104/2/104 
s off
f 103/3/103 108/3/108 148/4/148 146/4/146 
f 108/3/108 110/3/110 149/4/149 148/4/148 
f 110/3/110 112/3/112 150/4/150 149/4/149 
f 113/3/113 116/3/116 151/4/151 152/4/152 
f 117/3/117 120/3/120 153/4/153 154/4/154 
f 120/3/120 122/3/122 155/4/155 153/4/153 
f 156/7/156 157/3/157 158/3/158 
f 152/4/152 159/4/159 160/4/160 161/4/161 
f 159/4/159 162/4/162 163/4/163 160/4/160 
f 159/4/159 164/4/164 165/4/165 162/4/162 
f 159/4/159 152/4/152 151/4/151 164/4/164 
f 154/4/154 151/4/151 116/3/116 117/3/117 
f 155/4/155 165/4/165 164/4/164 153/4/153 
f 164/4/164 151/4/151 154/4/154 153/4/153 
f 152/4/152 161/4/161 130/3/130 113/3/113 
f 166/4/166 167/4/167 160/4/160 163/4/163 168/4/168 169/4/169 170/4/170 
f 171/4/171 172/4/172 173/4/173 
f 174/4/174 172/4/172 171/4/171 
s 1
f 104/2/104 147/1/147 175/5/175 140/6/140 
s off
f 176/4/176 177/4/177 143/3/143 142/3/142 
f 177/4/177 150/4/150 112/3/112 143/3/143 
f 160/4/160 167/4/167 178/4/178 176/4/176 142/3/142 130/3/130 161/4/161 
f 132/4/132 124/4/124 123/4/123 130/3/130 142/3/142 145/4/145 179/4/179 
f 158/3/158 157/3/157 180/8/180 
f 181/3/181 182/3/182 183/4/183 184/4/184 
f 185/4/185 186/4/186 182/3/182 181/3/181 
f 187/9/187 185/4/185 181/3/181 188/3/188 
f 181/3/181 184/4/184 189/10/189 188/3/188 
f 188/3/188 189/10/189 180/8/180 157/3/157 
f 156/7/156 187/9/187 188/3/188 157/3/157 
f 190/3/190 191/4/191 183/4/183 182/3/182 
f 186/4/186 192/4/192 190/3/190 182/3/182 
f 190/3/190 122/3/122 121/4/121 191/4/191 
f 155/4/155 122/3/122 190/3/190 192/4/192 
f 163/4/163 162/4/162 193/4/193 194/4/194 195/4/195 174/4/174 171/4/171 
f 196/4/196 168/4/168 163/4/163 171/4/171 173/4/173 197/4/197 198/4/198 
f 126/4/126 131/4/131 199/4/199 200/4/200 201/4/201 136/4/136 138/4/138 
f 202/4/202 127/4/127 126/4/126 138/4/138 139/4/139 203/4/203 204/4/204 
s 2
f 1/6/1 4/6/4 106/6/106 105/6/105 
f 4/6/4 6/6/6 107/6/107 106/6/106 
f 6/6/6 7/6/7 109/6/109 107/6/107 
f 7/6/7 9/6/9 111/6/111 109/6/109 
s 1
f 25/6/25 26/6/26 128/6/128 127/6/127 
f 26/6/26 19/6/19 121/6/121 128/6/128 
s 2
f 30/6/30 29/6/29 131/6/131 135/6/135 
f 31/6/31 30/6/30 135/6/135 134/6/134 
f 32/6/32 31/6/31 134/6/134 133/6/133 
f 33/6/33 32/6/32 133/6/133 132/6/132 
f 36/6/36 35/6/35 137/6/137 136/6/136 
s 4
f 35/6/35 37/6/37 139/6/139 137/6/137 
f 39/6/39 38/6/38 141/6/141 140/6/140 
s 2
f 38/6/38 1/6/1 105/6/105 141/6/141 
f 40/6/40 43/6/43 145/6/145 144/6/144 
f 9/6/9 40/6/40 144/6/144 111/6/111 
f 45/6/45 44/6/44 147/6/147 146/6/146 
f 46/6/46 45/6/45 146/6/146 148/6/148 
f 47/6/47 46/6/46 148/6/148 149/6/149 
f 48/6/48 47/6/47 149/6/149 150/6/150 
s 1
f 54/6/54 56/6/56 156/6/156 158/6/158 
s 2
f 62/6/62 61/6/61 162/6/162 165/6/165 
f 53/6/53 62/6/62 165/6/165 155/6/155 
f 65/6/65 64/6/64 167/6/167 166/6/166 
f 66/6/66 65/6/65 166/6/166 170/6/170 
f 67/6/67 66/6/66 170/6/170 169/6/169 
f 68/6/68 67/6/67 169/6/169 168/6/168 
f 70/6/70 69/6/69 173/6/173 172/6/172 
s 1
f 72/6/72 70/6/70 172/6/172 174/6/174 
s 2
f 44/6/44 73/6/73 175/6/175 147/6/147 
s 4
f 73/6/73 39/6/39 140/6/140 175/6/175 
s 2
f 75/6/75 74/6/74 177/6/177 176/6/176 
f 74/6/74 48/6/48 150/6/150 177/6/177 
f 64/6/64 76/6/76 178/6/178 167/6/167 
f 76/6/76 75/6/75 176/6/176 178/6/178 
f 77/6/77 33/6/33 132/6/132 179/6/179 
f 43/6/43 77/6/77 179/6/179 145/6/145 
f 78/6/78 54/6/54 158/6/158 180/6/180 
f 79/6/79 82/6/82 184/6/184 183/6/183 
s 1
f 84/6/84 83/6/83 186/6/186 185/6/185 
f 85/6/85 84/6/84 185/6/185 187/6/187 
s 2
f 82/6/82 87/6/87 189/6/189 184/6/184 
f 87/6/87 78/6/78 180/6/180 189/6/189 
s 1
f 56/6/56 85/6/85 187/6/187 156/6/156 
s 2
f 88/6/88 79/6/79 183/6/183 191/6/191 
s 1
f 83/6/83 90/6/90 192/6/192 186/6/186 
s 2
f 19/6/19 88/6/88 191/6/191 121/6/121 
s 1
f 90/6/90 53/6/53 155/6/155 192/6/192 
f 61/6/61 91/6/91 193/6/193 162/6/162 
f 91/6/91 93/6/93 194/6/194 193/6/193 
f 93/6/93 92/6/92 195/6/195 194/6/194 
f 92/6/92 72/6/72 174/6/174 195/6/195 
s 2
f 94/6/94 68/6/68 168/6/168 196/6/196 
f 95/6/95 94/6/94 196/6/196 198/6/198 
f 96/6/96 95/6/95 198/6/198 197/6/197 
f 69/6/69 96/6/96 197/6/197 173/6/173 
f 29/6/29 97/6/97 199/6/199 131/6/131 
f 97/6/97 99/6/99 200/6/200 199/6/199 
f 99/6/99 98/6/98 201/6/201 200/6/200 
f 98/6/98 36/6/36 136/6/136 201/6/201 
s 4
f 100/6/100 25/6/25 127/6/127 202/6/202 
f 101/6/101 100/6/100 202/6/202 204/6/204 
f 102/6/102 101/6/101 204/6/204 203/6/203 
f 37/6/37 102/6/102 203/6/203 139/6/139 
# 172 polygons - 12 triangles

